<svg width="141" height="140" viewBox="0 0 141 140" fill="none" xmlns="http://www.w3.org/2000/svg">
<g clip-path="url(#clip0_1032_5680)">
<path d="M140.5 70C140.5 83.8447 136.395 97.3784 128.703 108.89C121.011 120.401 110.079 129.373 97.2879 134.672C84.497 139.97 70.4224 141.356 56.8437 138.655C43.265 135.954 30.7922 129.287 21.0026 119.497C11.2129 109.708 4.54603 97.235 1.84506 83.6563C-0.855903 70.0776 0.53033 56.003 5.82846 43.2121C11.1266 30.4213 20.0987 19.4888 31.6101 11.7971C43.1215 4.10543 56.6553 0 70.5 0C89.0652 0 106.87 7.37498 119.997 20.5025C133.125 33.6301 140.5 51.4348 140.5 70Z" fill="#EAF1E2"/>
<mask id="mask0_1032_5680" style="mask-type:alpha" maskUnits="userSpaceOnUse" x="0" y="0" width="141" height="140">
<path d="M140.5 70C140.5 83.8447 136.395 97.3784 128.703 108.89C121.011 120.401 110.079 129.373 97.2879 134.672C84.497 139.97 70.4224 141.356 56.8437 138.655C43.265 135.954 30.7922 129.287 21.0026 119.497C11.2129 109.708 4.54603 97.235 1.84506 83.6563C-0.855903 70.0776 0.53033 56.003 5.82846 43.2121C11.1266 30.4213 20.0987 19.4888 31.6101 11.7971C43.1215 4.10543 56.6553 0 70.5 0C89.0652 0 106.87 7.37498 119.997 20.5025C133.125 33.6301 140.5 51.4348 140.5 70Z" fill="#EAF1E2"/>
</mask>
<g mask="url(#mask0_1032_5680)">
<path d="M139.136 143.718H4.07812C10.305 115.768 27.0221 110.18 27.0221 110.18L59.2327 95.1119L71.4402 95.0006H71.774L83.9941 95.1119L116.207 110.178C116.207 110.178 132.909 115.761 139.136 143.717" fill="#F4BA00"/>
<path d="M78.9937 14.8079C78.9937 14.8079 90.2348 9.80196 94.2201 19.2702C98.0538 28.388 82.8176 37.0789 82.8176 37.0789L78.9937 14.8079Z" fill="#553042"/>
<path d="M57.9646 52.6084C58.0072 54.1163 57.6017 55.6029 56.7993 56.8803C55.997 58.1577 54.8339 59.1686 53.4571 59.7849C52.0803 60.4013 50.5517 60.5956 49.0645 60.3433C47.5772 60.0909 46.1982 59.4032 45.1019 58.3671C44.0055 57.331 43.241 55.9931 42.905 54.5225C42.569 53.0519 42.6766 51.5147 43.2143 50.1053C43.7519 48.6958 44.6954 47.4775 45.9254 46.6043C47.1555 45.7311 48.6168 45.2422 50.1247 45.1996C52.1467 45.1427 54.1086 45.8912 55.5788 47.2806C57.049 48.67 57.9071 50.5864 57.9646 52.6084" fill="#F09585"/>
<path d="M46.0098 51.7533C46.0098 51.7533 49.0425 50.2765 51.9335 55.5453" stroke="#A8523F" stroke-width="0.748" stroke-linecap="round" stroke-linejoin="round"/>
<path d="M85.8145 52.8239C85.8145 54.3321 86.2616 55.8065 87.0994 57.0606C87.9371 58.3147 89.1279 59.2923 90.5212 59.8698C91.9145 60.4473 93.4477 60.5987 94.927 60.305C96.4063 60.0113 97.7654 59.2855 98.8323 58.2196C99.8993 57.1536 100.626 55.7952 100.921 54.3161C101.216 52.8371 101.066 51.3037 100.49 49.9099C99.9139 48.5161 98.9374 47.3245 97.684 46.4856C96.4307 45.6466 94.9567 45.1982 93.4485 45.1968C91.4257 45.1968 89.4857 46.0003 88.0553 47.4307C86.625 48.8611 85.8214 50.8011 85.8214 52.8239" fill="#F09585"/>
<path d="M97.7396 51.6322C97.7396 51.6322 94.6652 50.2417 91.9258 55.5897" stroke="#A8523F" stroke-width="0.748" stroke-linecap="round" stroke-linejoin="round"/>
<path d="M81.6775 70.4005C79.1823 72.1366 76.3996 73.4175 73.458 74.1841C70.7659 74.523 68.0366 73.9784 65.6807 72.6323L61.1044 70L59.23 95.1118L59.7361 95.529C62.96 98.1883 67.0017 99.6556 71.1807 99.6837C75.3597 99.7118 79.4208 98.2991 82.6801 95.6834L83.6632 94.8949L81.6775 70.4005Z" fill="#F09596"/>
<path d="M59.2285 67.3594C59.2285 67.3594 63.5017 81.3496 73.337 81.1939C81.4216 81.066 82.7259 67.3594 82.7259 67.3594H59.2285Z" fill="#E78481"/>
<path d="M92.4876 39.5471C92.5127 46.7314 91.7229 53.8954 90.1334 60.9017C88.9556 66.0773 85.5877 69.708 80.8167 72.6406L79.9477 73.1746C77.4299 74.6991 74.5523 75.5272 71.6094 75.5744C68.6665 75.6215 65.7639 74.886 63.1986 73.443C57.9979 70.4783 54.3464 66.5528 53.2005 61.0115C51.8675 53.998 51.0772 46.8921 50.8366 39.7571C50.8366 39.7571 47.9081 16.4321 70.3779 16.7449C92.8477 17.0578 92.4876 39.5499 92.4876 39.5499" fill="#F6AAA7"/>
<path d="M63.7921 46.3871C63.7921 46.7465 63.6856 47.0978 63.486 47.3966C63.2864 47.6954 63.0027 47.9283 62.6708 48.066C62.3389 48.2036 61.9736 48.2398 61.6211 48.1699C61.2687 48.1 60.9448 47.9271 60.6905 47.6732C60.4362 47.4194 60.2629 47.0958 60.1925 46.7434C60.122 46.391 60.1576 46.0257 60.2948 45.6936C60.4319 45.3614 60.6644 45.0774 60.9629 44.8773C61.2614 44.6773 61.6126 44.5703 61.9719 44.5697C62.2108 44.5693 62.4474 44.6161 62.6682 44.7073C62.8891 44.7984 63.0898 44.9322 63.2588 45.101C63.4279 45.2698 63.562 45.4703 63.6535 45.691C63.745 45.9117 63.7921 46.1482 63.7921 46.3871" fill="#512E3C"/>
<path d="M81.6193 46.3872C81.6192 46.747 81.5124 47.0988 81.3123 47.3979C81.1121 47.697 80.8277 47.9299 80.4951 48.0672C80.1624 48.2044 79.7965 48.2399 79.4437 48.1689C79.0908 48.098 78.767 47.924 78.5132 47.6688C78.2595 47.4137 78.0871 47.0889 78.0181 46.7357C77.9491 46.3825 77.9865 46.0168 78.1255 45.6849C78.2646 45.353 78.499 45.0698 78.7992 44.8713C79.0994 44.6728 79.4517 44.5678 79.8116 44.5697C80.2919 44.5723 80.7516 44.7649 81.0904 45.1055C81.4291 45.446 81.6193 45.9068 81.6193 46.3872Z" fill="#512E3C"/>
<path d="M69.2402 49.0416V54.0559H72.4788" stroke="#512E3C" stroke-width="0.748" stroke-linecap="round" stroke-linejoin="round"/>
<path d="M55.1989 38.7043L67.0769 37.6336C67.0769 37.6336 66.0118 34.5549 61.2047 35.0555C56.2905 35.5659 55.1934 38.7043 55.1934 38.7043" fill="#512E3C"/>
<path d="M85.8141 38.7044L73.9375 37.6337C73.9375 37.6337 75.0013 34.5564 79.8028 35.0556C84.717 35.566 85.8141 38.7044 85.8141 38.7044Z" fill="#512E3C"/>
<path d="M65.1758 58.2081H76.8925C76.8925 58.2081 76.3363 61.7971 70.8603 61.7971C65.3844 61.7971 65.1758 58.2081 65.1758 58.2081Z" fill="white"/>
<path d="M51.6013 50.7924C51.6013 50.7924 54.9261 25.5679 53.3006 21.413C53.3006 21.413 41.9885 30.7713 51.6013 50.7924Z" fill="#553042"/>
<path d="M91.6393 50.5907C91.6393 50.5907 87.8973 26.5037 88.9347 19.5732C88.9347 19.5732 99.8588 29.25 91.6393 50.5907Z" fill="#553042"/>
<path d="M88.1533 17.8559L77.7951 16.2916L76.8843 14.4991L71.4167 15.3265L65.9505 14.4991L65.0383 16.2916L54.6815 17.8573L53.2993 23.3986L53.64 29.7854C53.64 29.7854 55.2795 22.5407 60.9862 23.984C62.3323 24.3233 63.9425 24.8865 65.8267 25.2675C67.4762 25.627 69.1572 25.8227 70.8452 25.8515C71.0315 25.8515 71.2262 25.8515 71.4153 25.8515C71.6044 25.8515 71.7991 25.8515 71.9854 25.8515C73.6734 25.8226 75.3544 25.627 77.0039 25.2675C78.6438 24.9464 80.2608 24.5176 81.8444 23.984C87.1285 22.1416 89.0836 29.4558 89.0836 29.4558L89.5313 23.3986L88.1533 17.8559Z" fill="#553042"/>
<path d="M87.946 24.1607C85.8158 25.8995 83.2141 26.9611 80.4755 27.2089C77.7369 27.4567 74.9869 26.8794 72.5791 25.5512C72.5791 25.5512 50.6238 39.077 44.4262 24.3512C39.2659 12.0852 60.7067 -4.57908 82.8344 14.1919L87.946 24.1607Z" fill="#553042"/>
<path d="M59.2297 95.1049L52.0322 98.4116C52.0322 98.4116 51.953 110.477 71.511 109.852C91.564 109.211 91.4444 98.5951 91.4444 98.5951L83.6574 94.8907L59.2297 95.1049Z" fill="#F39391"/>
<path d="M70.4502 -4.19385V149.044" stroke="#E89800" stroke-width="1.5" stroke-linecap="round" stroke-dasharray="4 6"/>
<path d="M147.069 72.4252H-6.1691" stroke="#E89800" stroke-width="1.5" stroke-linecap="round" stroke-dasharray="4 6"/>
</g>
</g>
<defs>
<clipPath id="clip0_1032_5680">
<rect width="140" height="140" fill="white" transform="translate(0.5)"/>
</clipPath>
</defs>
</svg>
