<svg width="28" height="28" viewBox="0 0 28 28" fill="none" xmlns="http://www.w3.org/2000/svg">
<path d="M13.9251 4.76766C13.9652 4.7627 14.0031 4.74677 14.0347 4.72161C14.1657 4.62679 14.2875 4.51998 14.3987 4.40256C14.5589 4.25034 14.7444 4.12716 14.9469 4.03856C15.1893 3.96716 15.4499 3.99149 15.6749 4.10653C15.8095 4.14305 15.934 4.20979 16.0389 4.30169L16.301 4.54071C16.3841 4.61607 16.4758 4.68155 16.574 4.73587C16.6912 4.79309 16.8207 4.82058 16.9511 4.8159C17.0834 4.81907 17.2149 4.79596 17.3382 4.74793C17.4478 4.70297 17.5454 4.66131 17.6451 4.62294C17.7406 4.58551 17.8399 4.55867 17.9412 4.5429C18.0609 4.53036 18.1818 4.54614 18.2942 4.58895C18.4268 4.63287 18.537 4.72691 18.6012 4.85099C18.6534 4.96085 18.6699 5.08431 18.6484 5.20403C18.6208 5.33497 18.5667 5.45887 18.4894 5.56803C18.4078 5.68621 18.3035 5.78686 18.1824 5.86406C17.9341 6.0133 17.7118 6.20218 17.5246 6.42322C17.3722 6.614 17.2219 6.81464 17.0695 7.02624C16.9939 7.13588 16.9106 7.25429 16.8196 7.39025C16.7286 7.5262 16.6441 7.66325 16.5696 7.8014C16.4796 7.96598 16.3808 8.12556 16.2736 8.27943H11.559C11.4494 8.09742 11.3453 7.922 11.24 7.75425C11.1347 7.5865 11.0492 7.44945 10.944 7.29925C10.8387 7.14904 10.7466 7.01089 10.671 6.8881C10.5249 6.66741 10.353 6.46497 10.159 6.28508C9.96819 6.11185 9.78398 5.95616 9.59979 5.81691C9.40321 5.68263 9.25821 5.48542 9.18864 5.25775C9.16129 5.17276 9.15568 5.08227 9.17234 4.99456C9.189 4.90685 9.22742 4.82471 9.28403 4.75567C9.34064 4.68663 9.41365 4.63288 9.4964 4.59935C9.57914 4.56582 9.66895 4.55357 9.75765 4.56373C9.90421 4.58026 10.0489 4.61073 10.1896 4.65473C10.342 4.70078 10.4901 4.74573 10.6337 4.79178C10.7616 4.83669 10.8995 4.84467 11.0317 4.81481C11.2118 4.78604 11.3787 4.7026 11.5097 4.57579C11.6757 4.41495 11.8597 4.27368 12.0579 4.15478C12.2546 4.03422 12.4886 3.98977 12.7158 4.02979C12.9192 4.04931 13.1112 4.13301 13.264 4.2688C13.3213 4.34111 13.3868 4.40659 13.4591 4.46396C13.5287 4.51822 13.602 4.56767 13.6784 4.61197C13.7599 4.66983 13.8457 4.72151 13.935 4.76656L13.9251 4.76766Z" fill="#6D57DF"/>
<path d="M21.9298 16.669C21.8341 15.9776 21.6307 15.3054 21.3268 14.6769C21.0579 14.1295 20.7168 13.6206 20.3126 13.1639C19.9597 12.7653 19.583 12.3886 19.1844 12.0357C18.7459 11.6702 18.3585 11.3245 18.0223 10.9985C17.6879 10.6695 17.4083 10.3801 17.1802 10.1214C16.9375 9.86821 16.7091 9.60174 16.4961 9.32318L11.3803 9.32974C11.1837 9.58776 10.9556 9.86077 10.6961 10.1488C10.4454 10.447 10.1789 10.7317 9.89794 11.0017C9.57889 11.3131 9.22256 11.6432 8.82676 11.9885C8.36238 12.3938 7.9393 12.844 7.56371 13.3327C6.76123 14.374 6.24323 15.6061 6.06055 16.9081C5.96383 17.6199 5.98309 18.3426 6.11756 19.0482C6.25405 19.7571 6.50788 20.4381 6.86859 21.0634C7.26598 21.7617 7.78594 22.3827 8.40355 22.8966C9.10468 23.4752 9.90226 23.9258 10.7597 24.2276C11.7836 24.585 12.8626 24.7584 13.9469 24.7396C15.0071 24.7555 16.0632 24.6057 17.0772 24.2956C17.9312 24.0319 18.7353 23.6277 19.4563 23.0994C20.1015 22.6218 20.6465 22.022 21.0604 21.3342C21.4574 20.6714 21.7311 19.9422 21.8684 19.182C22.0201 18.3527 22.0408 17.5047 21.9298 16.669ZM16.609 13.6824C16.6087 13.7385 16.5863 13.7922 16.5467 13.8318C16.5071 13.8714 16.4534 13.8938 16.3974 13.894H15.256C15.4953 14.2114 15.6608 14.5781 15.7407 14.9674H16.3985C16.4545 14.9677 16.5082 14.9901 16.5478 15.0297C16.5874 15.0693 16.6098 15.123 16.6101 15.179V15.8292C16.6098 15.8852 16.5874 15.9389 16.5478 15.9785C16.5082 16.0181 16.4545 16.0405 16.3985 16.0408H15.7428C15.6182 16.6469 15.2885 17.1914 14.8091 17.5827C14.3298 17.9739 13.7302 18.188 13.1115 18.1887H12.7245L14.9633 20.4253C14.9829 20.4448 14.9985 20.4681 15.0091 20.4937C15.0198 20.5193 15.0252 20.5467 15.0252 20.5744C15.0252 20.6021 15.0198 20.6295 15.0091 20.6551C14.9985 20.6807 14.9829 20.704 14.9633 20.7235L14.5039 21.1829C14.4844 21.2025 14.4611 21.2181 14.4355 21.2287C14.4099 21.2394 14.3825 21.2448 14.3548 21.2448C14.3271 21.2448 14.2997 21.2394 14.2741 21.2287C14.2485 21.2181 14.2253 21.2025 14.2057 21.1829L11.2684 18.249C11.2487 18.2293 11.2331 18.2058 11.2226 18.18C11.2121 18.1542 11.2068 18.1266 11.207 18.0988V17.3269C11.2073 17.2708 11.2297 17.2172 11.2693 17.1776C11.309 17.138 11.3626 17.1156 11.4186 17.1153H13.1115C13.4446 17.1149 13.7693 17.0116 14.0414 16.8194C14.3134 16.6272 14.5194 16.3557 14.6311 16.0419H11.4186C11.3626 16.0416 11.309 16.0192 11.2693 15.9796C11.2297 15.94 11.2073 15.8863 11.207 15.8303V15.1801C11.2073 15.1241 11.2297 15.0704 11.2693 15.0308C11.309 14.9912 11.3626 14.9688 11.4186 14.9685H14.6311C14.5194 14.6548 14.3134 14.3832 14.0414 14.191C13.7693 13.9989 13.4446 13.8955 13.1115 13.8951H11.4186C11.3626 13.8949 11.309 13.8725 11.2693 13.8328C11.2297 13.7932 11.2073 13.7396 11.207 13.6835V13.0334C11.2073 12.9774 11.2297 12.9237 11.2693 12.8841C11.309 12.8444 11.3626 12.8221 11.4186 12.8218H16.4007C16.4567 12.8221 16.5104 12.8444 16.55 12.8841C16.5896 12.9237 16.612 12.9774 16.6123 13.0334V13.6835L16.609 13.6824Z" fill="#6D57DF"/>
</svg>
