<svg width="25" height="25" viewBox="0 0 25 25" fill="none" xmlns="http://www.w3.org/2000/svg">
<path d="M12.5 3.5C14.8869 3.5 17.1761 4.44821 18.864 6.13604C20.5518 7.82387 21.5 10.1131 21.5 12.5C21.5 14.8869 20.5518 17.1761 18.864 18.864C17.1761 20.5518 14.8869 21.5 12.5 21.5C10.1131 21.5 7.82387 20.5518 6.13604 18.864C4.44821 17.1761 3.5 14.8869 3.5 12.5C3.5 10.1131 4.44821 7.82387 6.13604 6.13604C7.82387 4.44821 10.1131 3.5 12.5 3.5ZM11.3789 14.2756L9.37957 12.275C9.3079 12.2033 9.22281 12.1465 9.12916 12.1077C9.03552 12.0689 8.93515 12.0489 8.83379 12.0489C8.73242 12.0489 8.63205 12.0689 8.53841 12.1077C8.44476 12.1465 8.35967 12.2033 8.288 12.275C8.14325 12.4198 8.06193 12.6161 8.06193 12.8208C8.06193 13.0255 8.14325 13.2218 8.288 13.3666L10.8337 15.9123C10.9052 15.9843 10.9902 16.0415 11.0839 16.0805C11.1776 16.1195 11.278 16.1396 11.3795 16.1396C11.481 16.1396 11.5814 16.1195 11.6751 16.0805C11.7688 16.0415 11.8538 15.9843 11.9253 15.9123L17.1967 10.6396C17.2693 10.5682 17.3271 10.4831 17.3667 10.3893C17.4063 10.2955 17.427 10.1948 17.4274 10.0929C17.4279 9.99111 17.4082 9.8902 17.3695 9.79601C17.3308 9.70183 17.2738 9.61625 17.2018 9.5442C17.1298 9.47215 17.0443 9.41506 16.9502 9.37623C16.8561 9.33739 16.7552 9.31758 16.6533 9.31793C16.5515 9.31829 16.4507 9.3388 16.3569 9.37829C16.263 9.41777 16.1779 9.47545 16.1064 9.548L11.3789 14.2756Z" fill="#4D3ECC"/>
</svg>
