<svg width="28" height="28" viewBox="0 0 28 28" fill="none" xmlns="http://www.w3.org/2000/svg">
<g clip-path="url(#clip0_1358_393)">
<path d="M22.8636 21.9771H24.7501V23.8635H4.00006V21.9771H5.88653V5.94264C5.88653 5.69264 5.98585 5.45287 6.16263 5.27609C6.3394 5.09931 6.57917 5 6.82917 5H21.9198C22.1698 5 22.4095 5.09931 22.5863 5.27609C22.7631 5.45287 22.8624 5.69264 22.8624 5.94264L22.8636 21.9771ZM10.6021 13.4885V15.375H13.4312V13.4885H10.6021ZM10.6021 9.71558V11.6021H13.4312V9.71558H10.6021ZM10.6021 17.2603V19.1468H13.4312V17.2615L10.6021 17.2603ZM15.3177 17.2603V19.1468H18.1468V17.2615L15.3177 17.2603ZM15.3177 13.4873V15.3738H18.1468V13.4885L15.3177 13.4873ZM15.3177 9.71439V11.6021H18.1468V9.71558L15.3177 9.71439Z" fill="#6D57DF"/>
</g>
<defs>
<clipPath id="clip0_1358_393">
<rect width="28" height="28" fill="white"/>
</clipPath>
</defs>
</svg>
