<svg width="28" height="28" viewBox="0 0 28 28" fill="none" xmlns="http://www.w3.org/2000/svg">
<path d="M4.50006 10.2116C4.50006 9.22231 4.50102 8.52788 4.56809 8.00304C4.63364 7.48998 4.75451 7.21552 4.93866 7.02206C5.11989 6.83169 5.37111 6.70933 5.84644 6.64188C6.33879 6.57201 6.99237 6.57053 7.93406 6.57053H19.7361C20.678 6.57053 21.3317 6.5717 21.8243 6.64144C22.2998 6.70876 22.5504 6.83108 22.7308 7.02132C22.9151 7.21572 23.0359 7.49081 23.1016 8.00365C23.1688 8.52829 23.1701 9.22249 23.1701 10.2116C23.1701 10.4689 23.1691 10.6143 23.1561 10.7164C23.1553 10.7227 23.1545 10.7285 23.1537 10.7337C23.0625 10.746 22.9306 10.7468 22.6866 10.7468H4.98356C4.73879 10.7468 4.6067 10.7457 4.51578 10.7331C4.51507 10.7283 4.51435 10.7231 4.51364 10.7175C4.50073 10.615 4.50006 10.4696 4.50006 10.2116ZM23.1434 10.781C23.1434 10.7809 23.1435 10.7805 23.1439 10.7798L23.1434 10.781ZM4.52593 10.7808C4.52592 10.7808 4.5258 10.7805 4.52557 10.7798L4.52593 10.7808Z" fill="#6D57DF" stroke="#6D57DF"/>
<path d="M4.93937 22.7192L4.93866 22.7184C4.75451 22.525 4.63364 22.2505 4.56809 21.7375C4.50102 21.2126 4.50006 20.5182 4.50006 19.5289V14.3526C4.50006 14.0953 4.50101 13.9499 4.514 13.8478C4.51481 13.8415 4.51561 13.8357 4.51641 13.8305C4.60759 13.8182 4.73951 13.8174 4.98356 13.8174H22.6866C22.9313 13.8174 23.0634 13.8185 23.1543 13.8311C23.1551 13.8359 23.1558 13.8411 23.1565 13.8467C23.1694 13.9492 23.1701 14.0946 23.1701 14.3526V19.5289C23.1701 20.5182 23.1691 21.2126 23.102 21.7375C23.0365 22.2505 22.9156 22.525 22.7315 22.7184C22.5502 22.9088 22.299 23.0312 21.8237 23.0986C21.3313 23.1685 20.6778 23.17 19.7361 23.17H7.93406C6.99217 23.17 6.33838 23.1688 5.84584 23.0991C5.37034 23.0318 5.11973 22.9094 4.93937 22.7192ZM4.52672 13.7832C4.52672 13.7832 4.52659 13.7836 4.52628 13.7844L4.52672 13.7832ZM23.1442 13.7834C23.1442 13.7834 23.1444 13.7838 23.1446 13.7845L23.1442 13.7834ZM18.8223 19.5701L18.4598 19.2257L18.8223 19.5701C19.0975 19.2804 19.2479 18.8928 19.2479 18.4937C19.2479 18.0945 19.0975 17.7069 18.8223 17.4173L18.4598 17.7616L18.8223 17.4173C18.5463 17.1267 18.1663 16.9584 17.7644 16.9584H9.90106C9.4991 16.9584 9.11912 17.1267 8.84312 17.4173C8.56795 17.7069 8.41756 18.0945 8.41756 18.4937C8.41756 18.8928 8.56795 19.2804 8.84312 19.5701C9.11912 19.8606 9.49909 20.0289 9.90106 20.0289H17.7644C18.1663 20.0289 18.5463 19.8606 18.8223 19.5701Z" fill="#6D57DF" stroke="#6D57DF"/>
<path d="M8.91754 4V7.10579V4Z" fill="#6D57DF"/>
<path d="M8.91754 4V7.10579" stroke="#6D57DF" stroke-width="2" stroke-linecap="round"/>
<path d="M18.7525 4V7.10579V4Z" fill="#6D57DF"/>
<path d="M18.7525 4V7.10579" stroke="#6D57DF" stroke-width="2" stroke-linecap="round"/>
</svg>
