<svg width="28" height="28" viewBox="0 0 28 28" fill="none" xmlns="http://www.w3.org/2000/svg">
<path fill-rule="evenodd" clip-rule="evenodd" d="M14 7C11.4227 7 9.33334 9.08934 9.33334 11.6667C9.33334 14.244 11.4227 16.3333 14 16.3333C16.5773 16.3333 18.6667 14.244 18.6667 11.6667C18.6667 9.08934 16.5773 7 14 7Z" fill="#6D57DF"/>
<path fill-rule="evenodd" clip-rule="evenodd" d="M8.16667 2.33334C4.94501 2.33334 2.33333 4.94502 2.33333 8.16668V19.8333C2.33333 23.055 4.94501 25.6667 8.16667 25.6667H19.8333C23.055 25.6667 25.6667 23.055 25.6667 19.8333V8.16668C25.6667 4.94502 23.055 2.33334 19.8333 2.33334H8.16667ZM4.66667 8.16668C4.66667 6.23368 6.23367 4.66668 8.16667 4.66668H19.8333C21.7663 4.66668 23.3333 6.23368 23.3333 8.16668V19.8333C23.3333 20.8469 22.9025 21.7598 22.2141 22.3989C20.6366 19.4829 17.5509 17.5 13.9997 17.5C10.4487 17.5 7.36309 19.4827 5.78559 22.3986C5.09732 21.7595 4.66667 20.8467 4.66667 19.8333V8.16668Z" fill="#6D57DF"/>
</svg>
