<svg width="28" height="28" viewBox="0 0 28 28" fill="none" xmlns="http://www.w3.org/2000/svg">
<path d="M14.0001 4C12.0223 4 10.0889 4.58649 8.44438 5.6853C6.79989 6.78412 5.51816 8.3459 4.76129 10.1732C4.00441 12.0004 3.80638 14.0111 4.19223 15.9509C4.57808 17.8907 5.53049 19.6725 6.92901 21.0711C8.32754 22.4696 10.1094 23.422 12.0492 23.8078C13.989 24.1937 15.9997 23.9957 17.8269 23.2388C19.6542 22.4819 21.216 21.2002 22.3148 19.5557C23.4136 17.9112 24.0001 15.9778 24.0001 14C24.0001 12.6868 23.7414 11.3864 23.2389 10.1732C22.7363 8.95991 21.9997 7.85752 21.0711 6.92893C20.1426 6.00035 19.0402 5.26375 17.8269 4.7612C16.6137 4.25866 15.3133 4 14.0001 4ZM14.0001 20C13.8023 20 13.609 19.9413 13.4445 19.8315C13.2801 19.7216 13.1519 19.5654 13.0762 19.3827C13.0005 19.2 12.9807 18.9989 13.0193 18.8049C13.0579 18.6109 13.1531 18.4327 13.293 18.2929C13.4328 18.153 13.611 18.0578 13.805 18.0192C13.999 17.9806 14.2 18.0004 14.3828 18.0761C14.5655 18.1518 14.7217 18.28 14.8315 18.4444C14.9414 18.6089 15.0001 18.8022 15.0001 19C15.0001 19.2652 14.8947 19.5196 14.7072 19.7071C14.5196 19.8946 14.2653 20 14.0001 20ZM15.0001 14.84V16C15.0001 16.2652 14.8947 16.5196 14.7072 16.7071C14.5196 16.8946 14.2653 17 14.0001 17C13.7349 17 13.4805 16.8946 13.293 16.7071C13.1054 16.5196 13.0001 16.2652 13.0001 16V14C13.0001 13.7348 13.1054 13.4804 13.293 13.2929C13.4805 13.1054 13.7349 13 14.0001 13C14.2968 13 14.5868 12.912 14.8334 12.7472C15.0801 12.5824 15.2724 12.3481 15.3859 12.074C15.4994 11.7999 15.5291 11.4983 15.4713 11.2074C15.4134 10.9164 15.2705 10.6491 15.0607 10.4393C14.851 10.2296 14.5837 10.0867 14.2927 10.0288C14.0017 9.97094 13.7001 10.0006 13.4261 10.1142C13.152 10.2277 12.9177 10.42 12.7529 10.6666C12.5881 10.9133 12.5001 11.2033 12.5001 11.5C12.5001 11.7652 12.3947 12.0196 12.2072 12.2071C12.0196 12.3946 11.7653 12.5 11.5001 12.5C11.2349 12.5 10.9805 12.3946 10.793 12.2071C10.6054 12.0196 10.5001 11.7652 10.5001 11.5C10.4975 10.8503 10.6757 10.2127 11.0149 9.65857C11.3542 9.10445 11.8409 8.65568 12.4207 8.3625C13.0005 8.06933 13.6504 7.94332 14.2978 7.99859C14.9451 8.05386 15.5643 8.28823 16.086 8.67545C16.6077 9.06267 17.0114 9.58746 17.2517 10.1911C17.4921 10.7947 17.5597 11.4533 17.447 12.0931C17.3343 12.733 17.0457 13.3288 16.6135 13.814C16.1814 14.2991 15.6227 14.6544 15.0001 14.84Z" fill="#6D57DF"/>
</svg>
