<svg width="28" height="28" viewBox="0 0 28 28" fill="none" xmlns="http://www.w3.org/2000/svg">
<g clip-path="url(#clip0_1358_402)">
<path fill-rule="evenodd" clip-rule="evenodd" d="M14.9927 24.7843C14.8161 24.9081 14.6057 24.9745 14.39 24.9745C14.1744 24.9745 13.964 24.9081 13.7874 24.7843L13.7678 24.7703L13.6979 24.72C13.6391 24.6766 13.558 24.6151 13.4476 24.534C13.235 24.3732 12.9358 24.1383 12.5764 23.8348C11.6428 23.0538 10.7645 22.209 9.94755 21.3067C8.05982 19.2148 6.00008 16.1762 6.00008 12.7713C5.99216 10.4741 6.8649 8.26125 8.43876 6.58791C9.20013 5.77134 10.1214 5.12019 11.1452 4.67497C12.1691 4.22976 13.2736 4 14.39 4C15.5065 4 16.611 4.22976 17.6348 4.67497C18.6587 5.12019 19.5799 5.77134 20.3413 6.58791C21.9152 8.26125 22.7879 10.4741 22.78 12.7713C22.78 16.1762 20.7202 19.2148 18.8395 21.3011C18.0226 22.2034 17.1442 23.0482 16.2106 23.8293C15.8527 24.1299 15.552 24.3648 15.3395 24.5284C15.2332 24.6095 15.1493 24.6682 15.0892 24.7144L15.0193 24.7647L14.9997 24.7787L14.9927 24.7843ZM11.2438 12.3896C11.2438 11.7673 11.4283 11.159 11.774 10.6416C12.1197 10.1242 12.6111 9.72095 13.186 9.48282C13.7609 9.24469 14.3935 9.18238 15.0038 9.30378C15.6141 9.42518 16.1747 9.72483 16.6148 10.1648C17.0548 10.6048 17.3544 11.1655 17.4758 11.7758C17.5972 12.3861 17.5349 13.0187 17.2968 13.5936C17.0586 14.1685 16.6554 14.6598 16.138 15.0056C15.6206 15.3513 15.0123 15.5358 14.39 15.5358C13.5556 15.5358 12.7553 15.2043 12.1653 14.6143C11.5753 14.0242 11.2438 13.224 11.2438 12.3896Z" fill="#6D57DF"/>
</g>
<defs>
<clipPath id="clip0_1358_402">
<rect width="28" height="28" fill="white"/>
</clipPath>
</defs>
</svg>
