<svg width="25" height="25" viewBox="0 0 25 25" fill="none" xmlns="http://www.w3.org/2000/svg">
<path fill-rule="evenodd" clip-rule="evenodd" d="M16.4087 4.37352C16.968 3.81421 17.7266 3.5 18.5176 3.5C18.9093 3.5 19.2971 3.57714 19.6589 3.72702C20.0208 3.8769 20.3495 4.09658 20.6265 4.37352C20.9034 4.65046 21.1231 4.97924 21.273 5.34108C21.4229 5.70292 21.5 6.09074 21.5 6.48239C21.5 6.87404 21.4229 7.26186 21.273 7.6237C21.1231 7.98554 20.9034 8.31432 20.6265 8.59126L19.5231 9.69466C19.1325 10.0852 18.4994 10.0852 18.1089 9.69467L15.3053 6.89114C14.9148 6.50062 14.9148 5.86745 15.3053 5.47693L16.4087 4.37352ZM13.8911 8.30536C13.5006 7.91483 12.8674 7.91483 12.4769 8.30536L5.51083 15.2714C4.87004 15.9122 4.41544 16.7151 4.19565 17.5943L3.52986 20.2575C3.44466 20.5982 3.54451 20.9587 3.79289 21.2071C4.04127 21.4555 4.40176 21.5553 4.74254 21.4701L7.40571 20.8043C8.28487 20.5846 9.08777 20.13 9.72857 19.4892L16.6946 12.5231C17.0852 12.1326 17.0852 11.4994 16.6946 11.1089L13.8911 8.30536Z" fill="#6D57DF"/>
<path fill-rule="evenodd" clip-rule="evenodd" d="M12.5 20.5C12.5 19.9477 12.9477 19.5 13.5 19.5L20.5 19.5C21.0523 19.5 21.5 19.9477 21.5 20.5C21.5 21.0523 21.0523 21.5 20.5 21.5L13.5 21.5C12.9477 21.5 12.5 21.0523 12.5 20.5Z" fill="#6D57DF"/>
</svg>
