<svg width="24" height="25" viewBox="0 0 24 25" fill="none" xmlns="http://www.w3.org/2000/svg">
<path d="M10.5 6.5H20.25M10.5 6.5C10.5 6.89782 10.342 7.27936 10.0607 7.56066C9.77936 7.84196 9.39782 8 9 8C8.60218 8 8.22064 7.84196 7.93934 7.56066C7.65804 7.27936 7.5 6.89782 7.5 6.5M10.5 6.5C10.5 6.10218 10.342 5.72064 10.0607 5.43934C9.77936 5.15804 9.39782 5 9 5C8.60218 5 8.22064 5.15804 7.93934 5.43934C7.65804 5.72064 7.5 6.10218 7.5 6.5M7.5 6.5H3.75M10.5 18.5H20.25M10.5 18.5C10.5 18.8978 10.342 19.2794 10.0607 19.5607C9.77936 19.842 9.39782 20 9 20C8.60218 20 8.22064 19.842 7.93934 19.5607C7.65804 19.2794 7.5 18.8978 7.5 18.5M10.5 18.5C10.5 18.1022 10.342 17.7206 10.0607 17.4393C9.77936 17.158 9.39782 17 9 17C8.60218 17 8.22064 17.158 7.93934 17.4393C7.65804 17.7206 7.5 18.1022 7.5 18.5M7.5 18.5H3.75M16.5 12.5H20.25M16.5 12.5C16.5 12.8978 16.342 13.2794 16.0607 13.5607C15.7794 13.842 15.3978 14 15 14C14.6022 14 14.2206 13.842 13.9393 13.5607C13.658 13.2794 13.5 12.8978 13.5 12.5M16.5 12.5C16.5 12.1022 16.342 11.7206 16.0607 11.4393C15.7794 11.158 15.3978 11 15 11C14.6022 11 14.2206 11.158 13.9393 11.4393C13.658 11.7206 13.5 12.1022 13.5 12.5M13.5 12.5H3.75" stroke="white" stroke-width="1.5" stroke-linecap="round" stroke-linejoin="round"/>
</svg>
